<?xml version="1.0" encoding="UTF-8" standalone="no"?>
<svg
   xmlns:dc="http://purl.org/dc/elements/1.1/"
   xmlns:cc="http://creativecommons.org/ns#"
   xmlns:rdf="http://www.w3.org/1999/02/22-rdf-syntax-ns#"
   xmlns:svg="http://www.w3.org/2000/svg"
   xmlns="http://www.w3.org/2000/svg"
   xmlns:sodipodi="http://sodipodi.sourceforge.net/DTD/sodipodi-0.dtd"
   xmlns:inkscape="http://www.inkscape.org/namespaces/inkscape"
   version="1.1"
   viewBox="0 0 197.8 69.967"
   id="svg34"
   sodipodi:docname="TutorialHub-logo.svg"
   inkscape:version="1.0.2-2 (e86c870879, 2021-01-15)">
  <metadata
     id="metadata40">
    <rdf:RDF>
      <cc:Work
         rdf:about="">
        <dc:format>image/svg+xml</dc:format>
        <dc:type
           rdf:resource="http://purl.org/dc/dcmitype/StillImage" />
        <dc:title></dc:title>
      </cc:Work>
    </rdf:RDF>
  </metadata>
  <defs
     id="defs38" />
  <sodipodi:namedview
     pagecolor="#ffffff"
     bordercolor="#666666"
     borderopacity="1"
     objecttolerance="10"
     gridtolerance="10"
     guidetolerance="10"
     inkscape:pageopacity="0"
     inkscape:pageshadow="2"
     inkscape:window-width="1920"
     inkscape:window-height="1001"
     id="namedview36"
     showgrid="false"
     inkscape:zoom="6.2285137"
     inkscape:cx="98.9"
     inkscape:cy="32.735773"
     inkscape:window-x="-9"
     inkscape:window-y="-9"
     inkscape:window-maximized="1"
     inkscape:current-layer="svg34" />
  <path
     d="m 188.65495,11.916072 h -63.09232 c -1.96307,0.220453 -3.04259,1.420695 -3.2333,3.611223 v 36.256582 c 0.18809,2.187905 1.26586,3.383772 3.21581,3.612098 h 63.12467 c 1.95084,-0.228326 3.02773,-1.425069 3.21669,-3.612098 V 15.527295 c -0.18983,-2.190528 -1.27022,-3.39077 -3.23155,-3.611223"
     fill="#f7971d"
     id="path28"
     style="fill:#008080;stroke-width:0.874812" />
  <path
     d="m 185.49688,28.800817 c -1.07077,-1.182746 -2.50896,-1.942082 -4.07575,-2.291131 -0.44879,-0.118975 -0.96143,-0.203831 -1.5318,-0.229201 -2.07155,-0.188086 -4.73272,0.640361 -5.96971,1.678764 l 0.30005,-8.489176 h -5.03803 v 26.282852 h 4.68024 V 44.30511 c 1.07863,0.868688 2.81077,1.877346 5.44921,1.877346 0.10318,0 0.2012,-8.74e-4 0.29655,-0.0026 0.0682,0.0018 0.13735,0.0026 0.20558,0.0026 2.21153,0 4.09151,-0.878311 5.63818,-2.634934 1.54753,-1.758371 2.32175,-4.260334 2.32175,-7.511135 0,-3.144074 -0.75935,-5.555057 -2.27627,-7.23557 m -4.06087,11.977052 c -0.7821,0.950045 -1.72951,1.424193 -2.84141,1.424193 -1.44693,0 -2.60605,-0.669232 -3.47824,-2.007694 -0.62112,-0.943922 -0.93256,-2.401358 -0.93256,-4.374059 0,-1.912339 0.40067,-3.337408 1.20113,-4.275207 0.80132,-0.937797 1.80474,-1.407572 3.01197,-1.407572 1.23173,0 2.24127,0.481146 3.03034,1.442565 0.78822,0.962293 1.18363,2.531706 1.18363,4.705613 0,2.045311 -0.39192,3.541239 -1.17486,4.492161 m -20.3735,-6.03358 c 0,2.725039 -0.12511,4.437047 -0.37617,5.136897 -0.25107,0.698975 -0.71736,1.285099 -1.39883,1.755748 -0.6806,0.473272 -1.45218,0.708596 -2.31214,0.708596 -0.7532,0 -1.37519,-0.175837 -1.86509,-0.528386 -0.4899,-0.352549 -0.82844,-0.831071 -1.01302,-1.434691 -0.18547,-0.60362 -0.27732,-2.243019 -0.27732,-4.921691 v -8.748121 h -5.03718 v 12.047911 c 0,1.792489 0.22659,3.196563 0.68061,4.213093 0.45404,1.015657 1.18887,1.804738 2.20454,2.366369 1.01651,0.561628 2.1634,0.842442 3.44237,0.842442 0.19159,0 0.38142,-0.0069 0.56951,-0.02013 0.009,0 0.0102,0 0.0148,-0.0018 3.20619,-0.09272 4.87619,-1.546668 5.72653,-2.505463 v 2.096925 h 4.67849 V 26.712641 h -5.03718 z M 144.62478,28.57774 c -0.4724,-0.668356 -1.174,-1.218612 -2.10565,-1.64902 -0.84333,-0.389292 -1.7785,-0.60012 -2.80729,-0.637738 -0.0174,-8.74e-4 -0.0332,-0.0026 -0.0507,-0.0035 -2.12317,-0.112856 -4.83859,0.506516 -6.1062,1.726004 v -8.543414 h -5.03716 v 26.281975 h 5.03716 v -9.536335 c 0,-1.601781 0.15309,-2.812521 0.45753,-3.63047 0.3053,-0.819698 0.78558,-1.432067 1.44343,-1.838853 0.65698,-0.405039 1.40321,-0.60887 2.24127,-0.60887 0.72785,0 1.33584,0.15834 1.81874,0.475022 0.48377,0.316683 0.82232,0.744466 1.01304,1.2816 0.19071,0.538885 0.28693,1.804737 0.28693,3.800183 v 10.057689 h 5.03716 V 34.583324 c 0,-1.708507 -0.0874,-2.969987 -0.26069,-3.781812 -0.17233,-0.81445 -0.49601,-1.55454 -0.96754,-2.223772"
     id="path30"
     style="fill:#ffffff;stroke-width:0.874812" />
  <text
     xml:space="preserve"
     style="font-style:normal;font-weight:normal;font-size:40px;line-height:1.25;font-family:sans-serif;fill:#000000;fill-opacity:1;stroke:none"
     x="6.1009741"
     y="56.353733"
     id="text44"><tspan
       sodipodi:role="line"
       id="tspan42"
       x="6.1009741"
       y="56.353733" /></text>
  <text
     xml:space="preserve"
     style="font-size:32px;line-height:1.25;font-family:sans-serif"
     x="4.6560054"
     y="44.633442"
     id="text48"><tspan
       sodipodi:role="line"
       id="tspan46"
       x="4.6560054"
       y="44.633442"
       style="font-style:normal;font-variant:normal;font-weight:bold;font-stretch:normal;font-size:32px;font-family:Arial;-inkscape-font-specification:'Arial Bold'">Tutorial</tspan></text>
</svg>
